<svg version="1.1" id="Layer_1" xmlns="http://www.w3.org/2000/svg" xmlns:xlink="http://www.w3.org/1999/xlink" x="0px" y="0px"
	 width="100%" viewBox="0 0 200 200" enable-background="new 0 0 200 200" xml:space="preserve">
<path fill="#010101" opacity="1.000000" stroke="none" 
	d="
M95.000000,201.000000 
	C63.333336,201.000000 32.166672,201.000000 1.000004,201.000000 
	C1.000003,134.333344 1.000003,67.666679 1.000001,1.000013 
	C67.666656,1.000009 134.333313,1.000009 200.999969,1.000004 
	C200.999985,67.666649 200.999985,134.333298 201.000000,200.999969 
	C165.833328,201.000000 130.666672,201.000000 95.000000,201.000000 
M63.046844,86.591187 
	C62.367527,87.073212 61.744144,87.677315 61.000160,88.018204 
	C54.202782,91.132706 52.008530,96.337692 52.940952,103.655968 
	C53.329006,106.701698 53.900188,108.728767 56.537056,110.586288 
	C72.738945,121.999557 89.156487,133.157257 104.754272,145.356384 
	C112.629005,151.515244 120.685326,152.560104 130.049255,151.253403 
	C130.049255,142.354279 130.049255,133.418716 130.049255,124.422440 
	C125.650337,124.422440 121.419113,124.422440 116.820358,124.422440 
	C116.820358,128.481369 116.820358,132.227890 116.820358,137.045624 
	C99.664246,124.754730 83.268829,113.008797 66.320572,100.866806 
	C83.227753,88.750832 99.619766,77.004036 116.864777,64.645973 
	C116.864777,69.724533 116.864777,73.782578 116.864777,77.893867 
	C121.616348,77.893867 125.830299,77.893867 130.115738,77.893867 
	C130.115738,68.453094 130.115738,59.321999 130.115738,49.834095 
	C127.616783,49.834095 125.268814,50.087830 122.994835,49.785328 
	C116.793892,48.960423 111.920227,51.274246 107.008385,54.927891 
	C92.712105,65.562096 78.108360,75.782944 63.046844,86.591187 
M125.398346,94.819397 
	C122.472740,94.819397 119.547134,94.819397 116.765366,94.819397 
	C114.752586,107.727272 115.561401,108.646278 127.553596,107.892143 
	C128.185272,107.852425 128.806519,107.647133 130.029388,107.396721 
	C130.029388,104.053276 130.325470,100.732193 129.860306,97.521385 
	C129.708344,96.472549 127.574577,95.710831 125.398346,94.819397 
z"/>
<path fill="#F9F9F9" opacity="1.000000" stroke="none" 
	d="
M63.336018,86.378540 
	C78.108360,75.782944 92.712105,65.562096 107.008385,54.927891 
	C111.920227,51.274246 116.793892,48.960423 122.994835,49.785328 
	C125.268814,50.087830 127.616783,49.834095 130.115738,49.834095 
	C130.115738,59.321999 130.115738,68.453094 130.115738,77.893867 
	C125.830299,77.893867 121.616348,77.893867 116.864777,77.893867 
	C116.864777,73.782578 116.864777,69.724533 116.864777,64.645973 
	C99.619766,77.004036 83.227753,88.750832 66.320572,100.866806 
	C83.268829,113.008797 99.664246,124.754730 116.820358,137.045624 
	C116.820358,132.227890 116.820358,128.481369 116.820358,124.422440 
	C121.419113,124.422440 125.650337,124.422440 130.049255,124.422440 
	C130.049255,133.418716 130.049255,142.354279 130.049255,151.253403 
	C120.685326,152.560104 112.629005,151.515244 104.754272,145.356384 
	C89.156487,133.157257 72.738945,121.999557 56.537056,110.586288 
	C53.900188,108.728767 53.329006,106.701698 52.940952,103.655968 
	C52.008530,96.337692 54.202782,91.132706 61.000160,88.018204 
	C61.744144,87.677315 62.367527,87.073212 63.336018,86.378540 
z"/>
<path fill="#C95050" opacity="1.000000" stroke="none" 
	d="
M125.872757,94.818604 
	C127.574577,95.710831 129.708344,96.472549 129.860306,97.521385 
	C130.325470,100.732193 130.029388,104.053276 130.029388,107.396721 
	C128.806519,107.647133 128.185272,107.852425 127.553596,107.892143 
	C115.561401,108.646278 114.752586,107.727272 116.765366,94.819397 
	C119.547134,94.819397 122.472740,94.819397 125.872757,94.818604 
z"/>
</svg>