<svg version="1.1" id="Layer_1" xmlns="http://www.w3.org/2000/svg" xmlns:xlink="http://www.w3.org/1999/xlink" x="0px" y="0px"
	 width="100%" viewBox="0 0 200 200" enable-background="new 0 0 200 200" xml:space="preserve">
<path fill="#010101" opacity="1.000000" stroke="none" 
	d="
M95.000000,201.000000 
	C63.333336,201.000000 32.166672,201.000000 1.000004,201.000000 
	C1.000003,134.333344 1.000003,67.666679 1.000001,1.000013 
	C67.666656,1.000009 134.333313,1.000009 200.999969,1.000004 
	C200.999985,67.666649 200.999985,134.333298 201.000000,200.999969 
	C165.833328,201.000000 130.666672,201.000000 95.000000,201.000000 
M88.507576,84.978012 
	C97.709778,78.382927 106.911980,71.787834 117.126137,64.467499 
	C117.126137,69.976082 117.126137,74.037788 117.126137,77.955811 
	C121.757675,77.955811 125.873848,77.955811 129.949158,77.955811 
	C129.949158,68.486488 129.949158,59.269512 129.949158,49.833939 
	C127.445206,49.833939 125.263557,50.047203 123.137611,49.793560 
	C116.998108,49.061077 112.073174,51.128296 107.117188,54.823494 
	C91.900360,66.169197 76.527084,77.331444 60.806812,87.961929 
	C54.946346,91.924934 52.169418,96.122887 52.913429,103.280869 
	C53.277008,106.778770 54.179680,108.928856 57.047371,110.949120 
	C73.247673,122.362015 89.703293,133.472580 105.247284,145.731766 
	C113.076462,151.906448 121.039337,152.185959 130.060669,151.380386 
	C130.060669,142.240570 130.060669,133.304718 130.060669,124.472931 
	C125.580002,124.472931 121.339767,124.472931 116.708923,124.472931 
	C116.708923,128.573135 116.708923,132.304123 116.708923,136.977829 
	C99.584503,124.701958 83.186409,112.946754 66.349991,100.877335 
	C73.906532,95.446190 80.909897,90.412628 88.507576,84.978012 
M125.396835,94.811897 
	C122.474075,94.811897 119.551315,94.811897 116.639084,94.811897 
	C116.639084,99.609261 116.639084,103.629974 116.639084,107.625702 
	C121.211449,107.625702 125.304764,107.625702 130.016632,107.625702 
	C130.016632,104.055557 130.312546,100.735626 129.848007,97.525742 
	C129.695816,96.474007 127.568756,95.708069 125.396835,94.811897 
z"/>
<path fill="#F9F9F9" opacity="1.000000" stroke="none" 
	d="
M88.210419,85.178543 
	C80.909897,90.412628 73.906532,95.446190 66.349991,100.877335 
	C83.186409,112.946754 99.584503,124.701958 116.708923,136.977829 
	C116.708923,132.304123 116.708923,128.573135 116.708923,124.472931 
	C121.339767,124.472931 125.580002,124.472931 130.060669,124.472931 
	C130.060669,133.304718 130.060669,142.240570 130.060669,151.380386 
	C121.039337,152.185959 113.076462,151.906448 105.247284,145.731766 
	C89.703293,133.472580 73.247673,122.362015 57.047371,110.949120 
	C54.179680,108.928856 53.277008,106.778770 52.913429,103.280869 
	C52.169418,96.122887 54.946346,91.924934 60.806812,87.961929 
	C76.527084,77.331444 91.900360,66.169197 107.117188,54.823494 
	C112.073174,51.128296 116.998108,49.061077 123.137611,49.793560 
	C125.263557,50.047203 127.445206,49.833939 129.949158,49.833939 
	C129.949158,59.269512 129.949158,68.486488 129.949158,77.955811 
	C125.873848,77.955811 121.757675,77.955811 117.126137,77.955811 
	C117.126137,74.037788 117.126137,69.976082 117.126137,64.467499 
	C106.911980,71.787834 97.709778,78.382927 88.210419,85.178543 
z"/>
<path fill="#CD4E4F" opacity="1.000000" stroke="none" 
	d="
M125.870834,94.811661 
	C127.568756,95.708069 129.695816,96.474007 129.848007,97.525742 
	C130.312546,100.735626 130.016632,104.055557 130.016632,107.625702 
	C125.304764,107.625702 121.211449,107.625702 116.639084,107.625702 
	C116.639084,103.629974 116.639084,99.609261 116.639084,94.811897 
	C119.551315,94.811897 122.474075,94.811897 125.870834,94.811661 
z"/>
</svg>